# xmcd
#
# Track frame offsets:
# 150
# 14941
# 29988
# 52388
# 76763
# 86010
# 105010
# 119335
# 134682
# 159886
# 188904
# 205980
# 224399
# 261137
#
# Disc length: 3909 seconds
#
#
# Revision: 0
# Processed by: cddbd v1.5.2PL0 Copyright (c) Steve Scherf et al.
# Submitted via: FreeRIP 2.53 
#
DISCID=cd0f430e
DTITLE=Various Artist - 8th Annual Blues and Boogie Piano Summit
DYEAR=2006
DGENRE=Boogie Woogie
TTITLE0=Julian Phillips - Boogie Rocks
TTITLE1=Julian Phillips - Pine Top's Blues
TTITLE2=Julian Phillips and Ricky Nye - Outskirts of Town
TTITLE3=Julian Phillips and Michael Pewny - Flip Flop and Fly
TTITLE4=Michael Pewny - Vienna Stomp
TTITLE5=Michael Pewny and Ricky Nye - Cincinnati Boogie
TTITLE6=Michael Pewny - San Antonio Rose
TTITLE7=Michael Pewny - Tico Tico
TTITLE8=Ricky Nye - Things An't What They Used To Be
TTITLE9=Ricky Nye - C.C. Rider
TTITLE10=Ricky Nye and Chase Garrett - Creole Boogie Pt. 2
TTITLE11=Mr. Boogie Woogie - In The Night
TTITLE12=Mr. Boogie Woogie - Too Many Dirty Dishes
TTITLE13=Mr. Boogie Woogie - Low Down Dog
EXTD=
EXTT0=
EXTT1=
EXTT2=
EXTT3=
EXTT4=
EXTT5=
EXTT6=
EXTT7=
EXTT8=
EXTT9=
EXTT10=
EXTT11=
EXTT12=
EXTT13=
PLAYORDER=
